<?xml version="1.0" encoding="UTF-8"?>
<svg id="Layer_2" data-name="Layer 2" xmlns="http://www.w3.org/2000/svg" viewBox="0 0 1913.39 283.46">
  <defs>
    <style>
      .cls-1 {
        fill: #000;
        stroke-width: 0px;
      }
    </style>
  </defs>
  <g id="Design">
    <polygon class="cls-1" points="1668.44 248.09 1753.9 248.09 1753.9 224.15 1697.31 224.15 1697.31 46.02 1611.34 46.02 1611.34 69.96 1668.52 69.96 1668.44 248.09"/>
    <polygon class="cls-1" points="1524.69 46.01 1323.85 46.01 1323.85 69.96 1409.99 69.96 1409.99 248.09 1438.68 248.09 1438.68 69.96 1524.69 69.96 1524.69 46.01"/>
    <polygon class="cls-1" points="747.64 46.21 719.46 46.21 657.65 218.43 595.84 46.21 566.79 46.21 566.79 52.18 638.27 247.01 638.65 248.09 675.78 248.09 747.55 52.72 747.64 46.21"/>
    <g>
      <path class="cls-1" d="M815.91,116.92c27.26,0,43.94,15.02,44.92,40.29h-92.32c2.79-24.9,20.8-40.29,47.4-40.29M816.2,93.5c-47.72,0-76.21,29.52-76.21,78.97s28.54,79.1,76.35,79.1c56.91,0,67.52-38.92,69.1-47.04v-5.98h-25.77l-.23,1.35c-2.21,12.97-14.9,28.11-43.38,28.11s-46.91-18.28-47.97-47.84h120.55v-14.1c0-45.45-27.08-72.58-72.44-72.58"/>
      <path class="cls-1" d="M940.83,120.42v-23.44h-27.92v151.12h28.79v-72.3c0-37.01,16.26-54.24,51.19-54.24h38.78v-24.86h-39.36c-26.77,0-43.19,7.55-51.49,23.73"/>
      <path class="cls-1" d="M1130.29,160.7l-26.7-3.92c-18.8-2.69-26.47-8.4-26.47-19.72,0-12.9,12.82-19.99,36.11-19.99,25.68,0,39.14,8.95,40.02,26.61l.07,1.54h26.68v-6.13c-2.7-28.88-27.09-45.44-66.92-45.44s-63.73,16.5-63.73,44.14c0,24.48,15.74,38.67,48.11,43.4l26.7,3.92c21.27,3.02,29.95,9.11,29.95,21.03,0,13.91-13.43,21.89-36.83,21.89-15.51,0-41.86-3.6-43.94-27.68l-.13-1.48h-26.91v6.12c2.47,28.22,30.33,46.46,70.98,46.46s64.74-17.43,64.74-46.61c0-32.53-29.52-40.76-51.74-44.12"/>
      <path class="cls-1" d="M1267.87,227.43c-20.33,0-32.48-8.45-32.48-22.61s9.93-21,31.24-23.78l49.83-6.44v7.3c0,28.51-18.16,45.53-48.59,45.53M1344.36,149.1c0-36.37-21.84-55.6-63.15-55.6-38.97,0-64.14,17.19-67.35,46.16v5.98h27.03l.15-1.46c1.88-18,15.19-27.13,39.59-27.13s35.82,9.43,35.82,30.58v3.93l-55.17,6.79c-36.19,4.46-54.54,20.48-54.54,47.61s22.34,45.3,56.91,45.3,47.96-13.97,53.66-23.14v19.95h27.04v-.02h37.01v-23.93h-37.01v-75.05Z"/>
      <path class="cls-1" d="M1840.65,116.92c27.26,0,43.94,15.02,44.92,40.29h-92.33c2.79-24.9,20.81-40.29,47.4-40.29M1913.39,166.08c0-45.45-27.08-72.58-72.44-72.58-47.72,0-76.21,29.52-76.21,78.97s28.55,79.1,76.36,79.1c56.92,0,67.52-38.92,69.09-47.04v-5.98h-25.77l-.23,1.35c-2.21,12.97-14.89,28.11-43.39,28.11s-46.91-18.28-47.96-47.84h120.55v-14.1Z"/>
    </g>
    <polyline class="cls-1" points="1639.64 224.15 1582.21 224.15 1582.21 103.05 1496.22 103.05 1496.22 127 1553.42 127 1553.42 224.15 1467.53 224.15 1467.53 248.09 1639.64 248.09"/>
    <rect class="cls-1" x="1553.58" y="46.01" width="28.68" height="28.68"/>
    <polygon class="cls-1" points="156.26 141.73 141.73 156.26 141.73 268.94 156.26 283.46 268.94 283.46 283.46 268.94 283.46 156.26 268.94 141.73 156.26 141.73"/>
    <polygon class="cls-1" points="14.53 0 0 14.53 0 127.2 14.53 141.73 127.2 141.73 141.74 127.2 141.74 14.53 127.2 0 14.53 0"/>
    <polygon class="cls-1" points="298 0 283.46 14.53 283.46 127.2 298 141.73 410.67 141.73 425.2 127.2 425.2 14.53 410.67 0 298 0"/>
  </g>
</svg>